<svg xmlns="http://www.w3.org/2000/svg" xmlns:xlink="http://www.w3.org/1999/xlink" width="64.407" height="64.406" viewBox="0 0 64.407 64.406">
  <metadata><?xpacket begin="﻿" id="W5M0MpCehiHzreSzNTczkc9d"?>
<x:xmpmeta xmlns:x="adobe:ns:meta/" x:xmptk="Adobe XMP Core 5.6-c138 79.159824, 2016/09/14-01:09:01        ">
   <rdf:RDF xmlns:rdf="http://www.w3.org/1999/02/22-rdf-syntax-ns#">
      <rdf:Description rdf:about=""/>
   </rdf:RDF>
</x:xmpmeta>
                                                                                                    
                                                                                                    
                                                                                                    
                                                                                                    
                                                                                                    
                                                                                                    
                                                                                                    
                                                                                                    
                                                                                                    
                                                                                                    
                                                                                                    
                                                                                                    
                                                                                                    
                                                                                                    
                                                                                                    
                                                                                                    
                                                                                                    
                                                                                                    
                                                                                                    
                                                                                                    
                           
<?xpacket end="w"?></metadata>
<defs>
    <style>
      .cls-1 {
        fill: #00a185;
        filter: url(#filter);
      }

      .cls-1, .cls-2 {
        fill-rule: evenodd;
      }

      .cls-2 {
        fill: #fff;
      }
    </style>
    <filter id="filter" x="370.781" y="465.813" width="64.407" height="64.406" filterUnits="userSpaceOnUse">
      <feFlood result="flood" flood-color="#63a63e"/>
      <feComposite result="composite" operator="in" in2="SourceGraphic"/>
      <feBlend result="blend" in2="SourceGraphic"/>
    </filter>
  </defs>
  <path id="Shape_3_copy_2" data-name="Shape 3 copy 2" class="cls-1" d="M402.981,465.806a32.214,32.214,0,1,1-32.214,32.214A32.214,32.214,0,0,1,402.981,465.806Zm-2.293,48.775L423.8,491.472" transform="translate(-370.781 -465.813)"/>
  <path id="Shape_3_copy_3" data-name="Shape 3 copy 3" class="cls-2" d="M423.475,491.472l-23.109,23.109a1.207,1.207,0,0,1-1.708,0l-3.416-3.447c-0.469-.477-1.239-1.251-1.708-1.728l-7.946-8.351a1.27,1.27,0,0,1-.358-0.878,1.2,1.2,0,0,1,.358-0.847l3.482-3.138a1.2,1.2,0,0,1,1.708,0l7.88,8.04a1.2,1.2,0,0,0,1.708,0L418.353,486.3a1.2,1.2,0,0,1,1.706,0l3.416,3.449A1.23,1.23,0,0,1,423.475,491.472Z" transform="translate(-370.781 -465.813)"/>
</svg>
